<?xml version="1.0" encoding="UTF-8"?>

<svg xmlns="http://www.w3.org/2000/svg"
     viewBox="0 0 133.33333 133.33333"
     width="133.33333" height="133.33333" aria-hidden="true">

  <mask id="hole-mask">
    <rect x="0" y="0" width="133.33333" height="133.33333" fill="white" />
    <circle cx="66.6667" cy="66.6667" r="6.5" fill="white" fill-opacity="0" />
  </mask>

  <g mask="url(#hole-mask)" transform="rotate(180,67.216049,66.219417)">
    <path
      d="M 21.280659,6.6978043 C 8.8419923,15.029804 4.5486591,33.591137 13.428659,46.109804 v 0 c 2.746666,4.119999 5.318666,6.226666 8.798666,9.839999 v 0 c 6.921333,6.986667 20.053333,20.241333 24.106666,24.333333 v 0 c 5.134667,5.533337 12.561333,9.533337 20.108,9.720007 v 0 c 8.345333,0.52 16.799999,-3.57334 22.453333,-9.720007 v 0 c 3.146666,-3.173333 11.506666,-11.613333 18.505336,-18.68 v 0 c 5.16133,-5.533333 10.028,-9.319999 14.25466,-15.279999 v 0 c 7.53334,-10.746667 6.13334,-25.853333 -2.89333,-35.305333 v 0 l -0.188,-0.201333 c -1.852,-1.7053327 -4.14533,-5.4666657 -6.27867,-3.6799997 v 0 C 108.53399,10.791138 93.92199,25.671137 89.187324,30.41647 v 0 c -3.278667,3.414667 -7.145334,6.44 -11.746667,8.201334 v 0 c -12.626666,4.985333 -25.145332,-0.494667 -33.613332,-10.44 v 0 C 38.813992,23.109804 29.893992,14.096471 25.213992,9.3631383 v 0 c -1.637333,-1.566667 -2.465333,-2.756 -3.453333,-2.756 v 0 c -0.154667,0 -0.313334,0.02933 -0.48,0.09067 M 54.108658,59.909807 c 2.558666,-5.72 7.612,-8.438666 12.745333,-8.626666 v 0 c 1.213333,-0.09333 2.454666,-0.052 3.694666,0.174666 v 0 c 6.8,1.226667 11.6,7.025334 11.812,13.68 v 0 c 0.01333,0.253333 0.01333,0.518667 0.01333,0.772 v 0 c 0,0.188 -0.01333,0.373333 -0.01333,0.561333 v 0 c -0.158667,6.812 -5.413333,12.972 -12.172,14.04 v 0 l -0.253333,0.052 c -0.824,0.141333 -1.636,0.208 -2.432,0.208 v 0 c -10.241333,0 -17.873333,-11.125333 -13.394666,-20.861333"
      fill="#A6D259" fill-opacity="0.78" stroke="none"/>
  </g>

  <g mask="url(#hole-mask)" transform="translate(-0.63661915,0.49529644)">
    <path
      d="M 21.280659,6.6978043 C 8.8419923,15.029804 4.5486591,33.591137 13.428659,46.109804 v 0 c 2.746666,4.119999 5.318666,6.226666 8.798666,9.839999 v 0 c 6.921333,6.986667 20.053333,20.241333 24.106666,24.333333 v 0 c 5.134667,5.533337 12.561333,9.533337 20.108,9.720007 v 0 c 8.345333,0.52 16.799999,-3.57334 22.453333,-9.720007 v 0 c 3.146666,-3.173333 11.506666,-11.613333 18.505336,-18.68 v 0 c 5.16133,-5.533333 10.028,-9.319999 14.25466,-15.279999 v 0 c 7.53334,-10.746667 6.13334,-25.853333 -2.89333,-35.305333 v 0 l -0.188,-0.201333 c -1.852,-1.7053327 -4.14533,-5.4666657 -6.27867,-3.6799997 v 0 C 108.53399,10.791138 93.92199,25.671137 89.187324,30.41647 v 0 c -3.278667,3.414667 -7.145334,6.44 -11.746667,8.201334 v 0 c -12.626666,4.985333 -25.145332,-0.494667 -33.613332,-10.44 v 0 C 38.813992,23.109804 29.893992,14.096471 25.213992,9.3631383 v 0 c -1.637333,-1.566667 -2.465333,-2.756 -3.453333,-2.756 v 0 c -0.154667,0 -0.313334,0.02933 -0.48,0.09067 M 54.108658,59.909807 c 2.558666,-5.72 7.612,-8.438666 12.745333,-8.626666 v 0 c 1.213333,-0.09333 2.454666,-0.052 3.694666,0.174666 v 0 c 6.8,1.226667 11.6,7.025334 11.812,13.68 v 0 c 0.01333,0.253333 0.01333,0.518667 0.01333,0.772 v 0 c 0,0.188 -0.01333,0.373333 -0.01333,0.561333 v 0 c -0.158667,6.812 -5.413333,12.972 -12.172,14.04 v 0 l -0.253333,0.052 c -0.824,0.141333 -1.636,0.208 -2.432,0.208 v 0 c -10.241333,0 -17.873333,-11.125333 -13.394666,-20.861333"
      fill="#76B900" fill-opacity="1" stroke="none"/>
  </g>

  <g mask="url(#hole-mask)" opacity="0.12" transform="translate(0.30715895,-0.12792755)">
    <path
      d="M 21.280659,6.6978043 C 8.8419923,15.029804 4.5486591,33.591137 13.428659,46.109804 v 0 c 2.746666,4.119999 5.318666,6.226666 8.798666,9.839999 v 0 c 6.921333,6.986667 20.053333,20.241333 24.106666,24.333333 v 0 c 5.134667,5.533337 12.561333,9.533337 20.108,9.720007 v 0 c 8.345333,0.52 16.799999,-3.57334 22.453333,-9.720007 v 0 c 3.146666,-3.173333 11.506666,-11.613333 18.505336,-18.68 v 0 c 5.16133,-5.533333 10.028,-9.319999 14.25466,-15.279999 v 0 c 7.53334,-10.746667 6.13334,-25.853333 -2.89333,-35.305333 v 0 l -0.188,-0.201333 c -1.852,-1.7053327 -4.14533,-5.4666657 -6.27867,-3.6799997 v 0 C 108.53399,10.791138 93.92199,25.671137 89.187324,30.41647 v 0 c -3.278667,3.414667 -7.145334,6.44 -11.746667,8.201334 v 0 c -12.626666,4.985333 -25.145332,-0.494667 -33.613332,-10.44 v 0 C 38.813992,23.109804 29.893992,14.096471 25.213992,9.3631383 v 0 c -1.637333,-1.566667 -2.465333,-2.756 -3.453333,-2.756 v 0 c -0.154667,0 -0.313334,0.02933 -0.48,0.09067 M 54.108658,59.909807 c 2.558666,-5.72 7.612,-8.438666 12.745333,-8.626666 v 0 c 1.213333,-0.09333 2.454666,-0.052 3.694666,0.174666 v 0 c 6.8,1.226667 11.6,7.025334 11.812,13.68 v 0 c 0.01333,0.253333 0.01333,0.518667 0.01333,0.772 v 0 c 0,0.188 -0.01333,0.373333 -0.01333,0.561333 v 0 c -0.158667,6.812 -5.413333,12.972 -12.172,14.04 v 0 l -0.253333,0.052 c -0.824,0.141333 -1.636,0.208 -2.432,0.208 v 0 c -10.241333,0 -17.873333,-11.125333 -13.394666,-20.861333"
      fill="#76B900"/>
  </g>
</svg>
