<?xml version="1.0" standalone="no"?>
<!DOCTYPE svg PUBLIC "-//W3C//DTD SVG 20010904//EN"
 "http://www.w3.org/TR/2001/REC-SVG-20010904/DTD/svg10.dtd">
<svg version="1.0" xmlns="http://www.w3.org/2000/svg"
 width="710.000000pt" height="710.000000pt" viewBox="0 0 710.000000 710.000000"
 preserveAspectRatio="xMidYMid meet">
<metadata>
Created by potrace 1.14, written by Peter Selinger 2001-2017
</metadata>
<g transform="translate(0.000000,710.000000) scale(0.100000,-0.100000)"
fill="#000000" stroke="none">
<path d="M2260 5516 c-77 -17 -168 -50 -230 -84 -118 -66 -69 -18 -1144 -1102
-158 -159 -298 -309 -318 -340 -69 -110 -108 -213 -134 -350 -7 -41 -6 -198 2
-244 29 -168 102 -324 201 -433 96 -105 1230 -1238 1279 -1278 76 -63 224
-134 309 -151 11 -2 43 -8 70 -13 52 -10 221 -8 290 4 66 12 194 62 269 107
52 30 126 96 274 242 111 110 202 203 202 208 0 5 -169 179 -376 387 -207 209
-396 406 -420 438 -87 115 -161 285 -188 432 -28 155 -13 361 39 516 28 83 93
204 150 279 30 39 221 239 425 445 203 206 370 377 370 380 0 13 -377 382
-426 418 -64 46 -172 98 -259 124 -91 27 -292 34 -385 15z m-729 -1596 c156
-42 292 -185 330 -346 42 -180 -40 -385 -194 -487 -187 -124 -439 -95 -592 70
-139 148 -161 397 -50 565 41 61 56 78 117 123 53 40 147 79 208 87 44 6 135
0 181 -12z"/>
<path d="M4549 5526 c-2 -2 -22 -7 -44 -10 -105 -16 -233 -67 -332 -132 -32
-21 -63 -43 -69 -49 -6 -5 -26 -24 -45 -41 -145 -133 -1185 -1193 -1222 -1246
-130 -182 -191 -427 -162 -648 19 -150 99 -335 193 -446 99 -118 1203 -1223
1267 -1269 93 -66 207 -122 286 -141 107 -26 166 -32 264 -29 121 3 138 6 240
36 208 62 229 80 815 669 535 538 720 728 756 777 63 84 134 260 153 378 9 58
8 270 -2 310 -45 181 -85 270 -173 386 -24 31 -310 325 -636 654 -469 472
-610 608 -673 650 -158 105 -285 145 -481 151 -72 2 -132 2 -135 0z m-818
-1596 c168 -40 306 -184 345 -362 3 -13 5 -53 5 -89 1 -201 -128 -377 -324
-440 -97 -31 -205 -27 -307 13 -241 94 -355 397 -239 633 97 197 306 295 520
245z"/>
</g>
</svg>
